<svg width="14" height="14" viewBox="0 0 14 14" fill="none" xmlns="http://www.w3.org/2000/svg">
<g clip-path="url(#clip0_452_1083)">
<path fill-rule="evenodd" clip-rule="evenodd" d="M1.70708 0.29301C1.51848 0.110852 1.26588 0.010058 1.00368 0.0123364C0.741483 0.0146148 0.490671 0.119784 0.305263 0.305192C0.119854 0.4906 0.0146856 0.741412 0.0124071 1.00361C0.0101287 1.26581 0.110923 1.51841 0.293081 1.70701L5.58608 7.00001L0.293081 12.293C0.197571 12.3853 0.121389 12.4956 0.0689798 12.6176C0.0165708 12.7396 -0.0110155 12.8708 -0.0121693 13.0036C-0.0133231 13.1364 0.0119786 13.2681 0.0622595 13.391C0.11254 13.5139 0.186794 13.6255 0.280686 13.7194C0.374579 13.8133 0.486231 13.8876 0.609127 13.9378C0.732023 13.9881 0.863703 14.0134 0.996482 14.0123C1.12926 14.0111 1.26048 13.9835 1.38249 13.9311C1.50449 13.8787 1.61483 13.8025 1.70708 13.707L7.00008 8.41401L12.2931 13.707C12.4817 13.8892 12.7343 13.99 12.9965 13.9877C13.2587 13.9854 13.5095 13.8802 13.6949 13.6948C13.8803 13.5094 13.9855 13.2586 13.9878 12.9964C13.99 12.7342 13.8892 12.4816 13.7071 12.293L8.41408 7.00001L13.7071 1.70701C13.8892 1.51841 13.99 1.26581 13.9878 1.00361C13.9855 0.741412 13.8803 0.4906 13.6949 0.305192C13.5095 0.119784 13.2587 0.0146148 12.9965 0.0123364C12.7343 0.010058 12.4817 0.110852 12.2931 0.29301L7.00008 5.58601L1.70708 0.29301Z" fill="white"/>
</g>
<defs>
<clipPath id="clip0_452_1083">
<rect width="14" height="14" fill="white"/>
</clipPath>
</defs>
</svg>
