<svg width="26" height="25" viewBox="0 0 26 25" fill="none" xmlns="http://www.w3.org/2000/svg">
<path d="M22.715 3.27081C21.3879 1.94332 19.6284 1.13622 17.7565 0.996289C15.8847 0.856357 14.0247 1.39289 12.515 2.50831C10.9246 1.32536 8.94498 0.788951 6.97489 1.00711C5.0048 1.22527 3.19054 2.18178 1.89746 3.68404C0.604376 5.1863 -0.0714793 7.12271 0.00599426 9.10333C0.0834678 11.0839 0.908515 12.9616 2.31499 14.3583L11.6275 23.6708C11.7437 23.788 11.8819 23.881 12.0343 23.9444C12.1866 24.0079 12.35 24.0406 12.515 24.0406C12.68 24.0406 12.8434 24.0079 12.9957 23.9444C13.148 23.881 13.2863 23.788 13.4025 23.6708L22.715 14.3583C23.4433 13.6305 24.0211 12.7662 24.4153 11.815C24.8095 10.8638 25.0123 9.84423 25.0123 8.81456C25.0123 7.7849 24.8095 6.76533 24.4153 5.8141C24.0211 4.86288 23.4433 3.99866 22.715 3.27081ZM20.9525 12.5958L12.515 21.0208L4.07749 12.5958C3.33396 11.8492 2.82746 10.8996 2.62153 9.86624C2.4156 8.83285 2.51941 7.76167 2.91993 6.78705C3.32046 5.81244 3.99987 4.9778 4.87293 4.38784C5.74599 3.79788 6.77382 3.47886 7.82749 3.47081C9.23514 3.47426 10.5839 4.03623 11.5775 5.03331C11.6937 5.15047 11.8319 5.24347 11.9843 5.30693C12.1366 5.37039 12.3 5.40306 12.465 5.40306C12.63 5.40306 12.7934 5.37039 12.9457 5.30693C13.098 5.24347 13.2363 5.15047 13.3525 5.03331C14.3754 4.14692 15.6969 3.68224 17.0494 3.73334C18.402 3.78444 19.6846 4.3475 20.6377 5.30855C21.5908 6.2696 22.1432 7.55686 22.1831 8.9098C22.223 10.2627 21.7473 11.5803 20.8525 12.5958H20.9525Z" fill="#4F4F4F"/>
</svg>
