<svg width="21" height="24" viewBox="0 0 21 24" fill="none" xmlns="http://www.w3.org/2000/svg">
<path d="M19.8333 7.87872L12.8334 1.83694C12.1917 1.27187 11.361 0.959473 10.5 0.959473C9.63912 0.959473 8.80841 1.27187 8.16672 1.83694L1.16677 7.87872C0.796201 8.20501 0.50049 8.60529 0.299326 9.05289C0.0981609 9.5005 -0.00384129 9.98516 0.000110592 10.4746V20.5136C0.000110592 21.4275 0.368857 22.304 1.02523 22.9502C1.6816 23.5964 2.57184 23.9595 3.50009 23.9595H17.5C18.4282 23.9595 19.3185 23.5964 19.9748 22.9502C20.6312 22.304 21 21.4275 21 20.5136V10.4631C21.0023 9.9756 20.8995 9.49315 20.6983 9.04765C20.4972 8.60214 20.2024 8.20373 19.8333 7.87872ZM12.8334 21.6622H8.16672V15.9191C8.16672 15.6145 8.28964 15.3223 8.50843 15.1069C8.72722 14.8915 9.02396 14.7705 9.33338 14.7705H11.6667C11.9761 14.7705 12.2729 14.8915 12.4916 15.1069C12.7104 15.3223 12.8334 15.6145 12.8334 15.9191V21.6622ZM18.6666 20.5136C18.6666 20.8182 18.5437 21.1104 18.3249 21.3258C18.1061 21.5412 17.8094 21.6622 17.5 21.6622H15.1667V15.9191C15.1667 15.0052 14.7979 14.1287 14.1416 13.4825C13.4852 12.8363 12.5949 12.4732 11.6667 12.4732H9.33338C8.40513 12.4732 7.51489 12.8363 6.85852 13.4825C6.20215 14.1287 5.8334 15.0052 5.8334 15.9191V21.6622H3.50009C3.19067 21.6622 2.89393 21.5412 2.67513 21.3258C2.45634 21.1104 2.33343 20.8182 2.33343 20.5136V10.4631C2.33364 10.3 2.36912 10.1389 2.43751 9.99032C2.50591 9.84179 2.60565 9.70929 2.73009 9.60165L9.73004 3.57137C9.94294 3.38722 10.2166 3.28567 10.5 3.28567C10.7834 3.28567 11.0571 3.38722 11.27 3.57137L18.27 9.60165C18.3944 9.70929 18.4942 9.84179 18.5626 9.99032C18.631 10.1389 18.6664 10.3 18.6666 10.4631V20.5136Z" fill="#18A558"/>
</svg>
