<svg width="15" height="20" viewBox="0 0 15 20" fill="none" xmlns="http://www.w3.org/2000/svg">
<path opacity="0.6" d="M7.42124 9.5C6.7435 9.5 6.09353 9.23661 5.6143 8.76777C5.13507 8.29893 4.86584 7.66304 4.86584 7C4.86584 6.33696 5.13507 5.70107 5.6143 5.23223C6.09353 4.76339 6.7435 4.5 7.42124 4.5C8.09897 4.5 8.74895 4.76339 9.22818 5.23223C9.70741 5.70107 9.97664 6.33696 9.97664 7C9.97664 7.3283 9.91054 7.65339 9.78212 7.95671C9.6537 8.26002 9.46547 8.53562 9.22818 8.76777C8.99089 8.99991 8.70918 9.18406 8.39915 9.3097C8.08911 9.43534 7.75682 9.5 7.42124 9.5ZM7.42124 0C5.52358 0 3.70365 0.737498 2.3618 2.05025C1.01995 3.36301 0.266113 5.14348 0.266113 7C0.266113 12.25 7.42124 20 7.42124 20C7.42124 20 14.5764 12.25 14.5764 7C14.5764 5.14348 13.8225 3.36301 12.4807 2.05025C11.1388 0.737498 9.31889 0 7.42124 0Z" fill="black"/>
</svg>
