<svg width="28" height="27" viewBox="0 0 28 27" fill="none" xmlns="http://www.w3.org/2000/svg">
<path d="M21.6736 4.5H19.4236V3.375C19.4236 3.07663 19.3051 2.79048 19.0941 2.5795C18.8831 2.36853 18.597 2.25 18.2986 2.25C18.0002 2.25 17.7141 2.36853 17.5031 2.5795C17.2921 2.79048 17.1736 3.07663 17.1736 3.375V4.5H10.4236V3.375C10.4236 3.07663 10.3051 2.79048 10.0941 2.5795C9.8831 2.36853 9.59695 2.25 9.29858 2.25C9.00022 2.25 8.71407 2.36853 8.50309 2.5795C8.29211 2.79048 8.17358 3.07663 8.17358 3.375V4.5H5.92358C5.02848 4.5 4.17003 4.85558 3.5371 5.48851C2.90416 6.12145 2.54858 6.97989 2.54858 7.875V21.375C2.54858 22.2701 2.90416 23.1286 3.5371 23.7615C4.17003 24.3944 5.02848 24.75 5.92358 24.75H21.6736C22.5687 24.75 23.4271 24.3944 24.0601 23.7615C24.693 23.1286 25.0486 22.2701 25.0486 21.375V7.875C25.0486 6.97989 24.693 6.12145 24.0601 5.48851C23.4271 4.85558 22.5687 4.5 21.6736 4.5ZM22.7986 21.375C22.7986 21.6734 22.6801 21.9595 22.4691 22.1705C22.2581 22.3815 21.972 22.5 21.6736 22.5H5.92358C5.62522 22.5 5.33907 22.3815 5.12809 22.1705C4.91711 21.9595 4.79858 21.6734 4.79858 21.375V13.5H22.7986V21.375ZM22.7986 11.25H4.79858V7.875C4.79858 7.57663 4.91711 7.29048 5.12809 7.0795C5.33907 6.86853 5.62522 6.75 5.92358 6.75H8.17358V7.875C8.17358 8.17337 8.29211 8.45952 8.50309 8.6705C8.71407 8.88147 9.00022 9 9.29858 9C9.59695 9 9.8831 8.88147 10.0941 8.6705C10.3051 8.45952 10.4236 8.17337 10.4236 7.875V6.75H17.1736V7.875C17.1736 8.17337 17.2921 8.45952 17.5031 8.6705C17.7141 8.88147 18.0002 9 18.2986 9C18.597 9 18.8831 8.88147 19.0941 8.6705C19.3051 8.45952 19.4236 8.17337 19.4236 7.875V6.75H21.6736C21.972 6.75 22.2581 6.86853 22.4691 7.0795C22.6801 7.29048 22.7986 7.57663 22.7986 7.875V11.25Z" fill="#4F4F4F"/>
</svg>
