<svg width="20" height="20" viewBox="0 0 20 20" fill="none" xmlns="http://www.w3.org/2000/svg">
<path opacity="0.6" d="M17.2463 13.6386L14.5707 13.3158C14.2561 13.2767 13.9372 13.3135 13.6379 13.4234C13.3387 13.5334 13.067 13.7135 12.8431 13.9504L10.9048 15.999C7.9146 14.3912 5.48404 11.8223 3.96285 8.66193L5.91165 6.60221C6.36462 6.12347 6.58584 5.45546 6.5121 4.77631L6.20661 1.97065C6.14711 1.42743 5.90056 0.926342 5.51395 0.562909C5.12735 0.199476 4.62773 -0.000890765 4.11033 2.97707e-06H2.28793C1.09758 2.97707e-06 0.107377 1.04656 0.181116 2.30465C0.739422 11.8127 7.9342 19.4058 16.9198 19.9959C18.1101 20.0738 19.1003 19.0273 19.1003 17.7692V15.8431C19.1109 14.7186 18.3103 13.7722 17.2463 13.6386Z" fill="black" fill-opacity="0.5"/>
</svg>
