<svg width="24" height="23" viewBox="0 0 24 23" fill="none" xmlns="http://www.w3.org/2000/svg">
<path d="M11.7986 11.5C13.3236 11.5 14.7861 10.8942 15.8644 9.81586C16.9428 8.73753 17.5486 7.27499 17.5486 5.75C17.5486 4.22501 16.9428 2.76247 15.8644 1.68414C14.7861 0.605802 13.3236 0 11.7986 0C10.2736 0 8.81105 0.605802 7.73272 1.68414C6.65439 2.76247 6.04858 4.22501 6.04858 5.75C6.04858 7.27499 6.65439 8.73753 7.73272 9.81586C8.81105 10.8942 10.2736 11.5 11.7986 11.5ZM15.6319 5.75C15.6319 6.76666 15.228 7.74169 14.5092 8.46058C13.7903 9.17947 12.8152 9.58333 11.7986 9.58333C10.7819 9.58333 9.8069 9.17947 9.08801 8.46058C8.36912 7.74169 7.96525 6.76666 7.96525 5.75C7.96525 4.73334 8.36912 3.75831 9.08801 3.03942C9.8069 2.32053 10.7819 1.91667 11.7986 1.91667C12.8152 1.91667 13.7903 2.32053 14.5092 3.03942C15.228 3.75831 15.6319 4.73334 15.6319 5.75ZM23.2986 21.0833C23.2986 23 21.3819 23 21.3819 23H2.21525C2.21525 23 0.298584 23 0.298584 21.0833C0.298584 19.1667 2.21525 13.4167 11.7986 13.4167C21.3819 13.4167 23.2986 19.1667 23.2986 21.0833ZM21.3819 21.0757C21.38 20.6042 21.0868 19.1858 19.7873 17.8863C18.5376 16.6367 16.1858 15.3333 11.7986 15.3333C7.40942 15.3333 5.05958 16.6367 3.80992 17.8863C2.51042 19.1858 2.21908 20.6042 2.21525 21.0757H21.3819Z" fill="#4F4F4F"/>
</svg>
