<svg width="24" height="24" viewBox="0 0 24 24" fill="none" xmlns="http://www.w3.org/2000/svg">
<path d="M20.3501 8.92305L19.9841 8.71905L19.8711 8.65505C19.5985 8.49143 19.3688 8.26518 19.2011 7.99505C19.1831 7.96805 19.1671 7.93905 19.1351 7.88305C18.9195 7.53698 18.8148 7.13328 18.8351 6.72605L18.8411 6.30105C18.8531 5.62105 18.8591 5.27905 18.7631 4.97305C18.6781 4.70079 18.536 4.44984 18.3461 4.23705C18.1321 3.99705 17.8351 3.82505 17.2401 3.48305L16.7461 3.19805C16.1541 2.85705 15.8571 2.68605 15.5421 2.62105C15.2638 2.56346 14.9764 2.56585 14.6991 2.62805C14.3861 2.69805 14.0931 2.87405 13.5081 3.22405L13.5051 3.22605L13.1511 3.43705C13.0951 3.47105 13.0661 3.48705 13.0381 3.50305C12.7601 3.65805 12.4501 3.74305 12.1311 3.75305C12.0991 3.75505 12.0661 3.75505 12.0011 3.75505L11.8711 3.75405C11.552 3.74389 11.24 3.65748 10.9611 3.50205C10.9331 3.48705 10.9061 3.47005 10.8501 3.43605L10.4931 3.22205C9.90408 2.86805 9.60908 2.69205 9.29408 2.62105C9.01573 2.55875 8.72728 2.5567 8.44808 2.61505C8.13208 2.68105 7.83608 2.85305 7.24308 3.19705L7.24008 3.19805L6.75208 3.48105L6.74708 3.48505C6.15908 3.82505 5.86408 3.99705 5.65208 4.23605C5.46316 4.44844 5.32168 4.69867 5.23708 4.97005C5.14208 5.27705 5.14708 5.61905 5.15908 6.30305L5.16608 6.72705C5.16608 6.79205 5.16908 6.82405 5.16808 6.85505C5.1629 7.21837 5.05884 7.57341 4.86708 7.88205C4.83408 7.93805 4.81908 7.96605 4.80208 7.99205C4.63347 8.26422 4.40198 8.49193 4.12708 8.65605L4.01508 8.71905L3.65408 8.91905C3.05208 9.25205 2.75108 9.41905 2.53308 9.65705C2.33926 9.86688 2.19264 10.1158 2.10308 10.387C2.00308 10.694 2.00308 11.037 2.00408 11.725L2.00608 12.288C2.00708 12.971 2.00908 13.312 2.11008 13.617C2.19926 13.8866 2.34483 14.1341 2.53708 14.3431C2.75508 14.5791 3.05308 14.745 3.65008 15.077L4.00808 15.276C4.06908 15.31 4.10008 15.326 4.12908 15.344C4.44245 15.5319 4.69838 15.802 4.86908 16.125L4.93608 16.2451C5.10499 16.564 5.18447 16.9226 5.16608 17.2831L5.15908 17.6901C5.14708 18.3761 5.14208 18.7201 5.23808 19.0271C5.32308 19.2991 5.46508 19.5501 5.65508 19.7631C5.86908 20.0031 6.16708 20.174 6.76108 20.517L7.25508 20.802C7.84808 21.143 8.14408 21.314 8.45908 21.379C8.73738 21.4366 9.02477 21.4343 9.30208 21.372C9.61608 21.302 9.90908 21.126 10.4961 20.774L10.8501 20.562L10.9631 20.496C11.2411 20.342 11.5511 20.256 11.8701 20.246L12.0001 20.2451H12.1301C12.4481 20.2551 12.7601 20.342 13.0401 20.497L13.1321 20.552L13.5081 20.778C14.0981 21.132 14.3921 21.308 14.7071 21.378C14.9853 21.441 15.2737 21.4437 15.5531 21.386C15.8681 21.32 16.1661 21.147 16.7591 20.803L17.2541 20.5161C17.8421 20.1741 18.1371 20.003 18.3491 19.764C18.5391 19.551 18.6791 19.3011 18.7641 19.0301C18.8591 18.7251 18.8541 18.386 18.8421 17.712L18.8341 17.272V17.1451C18.8388 16.7815 18.9425 16.4261 19.1341 16.1171L19.1991 16.007C19.3677 15.7349 19.5992 15.5072 19.8741 15.3431L19.9841 15.282L19.9861 15.281L20.3471 15.081C20.9491 14.747 21.2501 14.5811 21.4691 14.3431C21.6631 14.1331 21.8091 13.883 21.8981 13.613C21.9981 13.308 21.9981 12.966 21.9961 12.286L21.9941 11.712C21.9931 11.029 21.9921 10.687 21.8911 10.382C21.8015 10.1128 21.6556 9.86561 21.4631 9.65705C21.2461 9.42105 20.9481 9.25505 20.3521 8.92405L20.3501 8.92305Z" stroke="black" stroke-width="2" stroke-linecap="round" stroke-linejoin="round"/>
<path d="M8 12C8 13.0609 8.42143 14.0783 9.17157 14.8284C9.92172 15.5786 10.9391 16 12 16C13.0609 16 14.0783 15.5786 14.8284 14.8284C15.5786 14.0783 16 13.0609 16 12C16 10.9391 15.5786 9.92172 14.8284 9.17157C14.0783 8.42143 13.0609 8 12 8C10.9391 8 9.92172 8.42143 9.17157 9.17157C8.42143 9.92172 8 10.9391 8 12Z" stroke="black" stroke-width="2" stroke-linecap="round" stroke-linejoin="round"/>
</svg>
